<svg t="1567061220068" class="icon" viewBox="0 0 1024 1024" version="1.1" xmlns="http://www.w3.org/2000/svg" p-id="3326" width="280" height="280"><path d="M349.86666666 554.66666666L213.33333333 554.66666666c-75.09333333 0-136.53333333 61.44-136.53333334 136.53333333l0 136.53333334c0 75.09333333 61.44 136.53333333 136.53333334 136.53333333l136.53333333 0c75.09333333 0 136.53333333-61.44 136.53333333-136.53333333l0-136.53333334C486.39999999 616.10666666 424.95999999 554.66666666 349.86666666 554.66666666zM418.13333333 827.73333333c0 37.54666667-30.72 68.26666667-68.26666667 68.26666666L213.33333333 895.99999999c-37.54666667 0-68.26666667-30.72-68.26666667-68.26666666l0-136.53333334c0-37.54666667 30.72-68.26666667 68.26666667-68.26666666l136.53333333 0c37.54666667 0 68.26666667 30.72 68.26666667 68.26666666L418.13333333 827.73333333zM827.73333333 76.79999999l-136.53333334 0C616.10666666 76.79999999 554.66666666 138.23999999 554.66666666 213.33333333l0 136.53333333c0 75.09333333 61.44 136.53333333 136.53333333 136.53333333l136.53333334 0c75.09333333 0 136.53333333-61.44 136.53333333-136.53333333L964.26666666 213.33333333C964.26666666 138.23999999 902.82666666 76.79999999 827.73333333 76.79999999zM895.99999999 349.86666666c0 37.54666667-30.72 68.26666667-68.26666666 68.26666667l-136.53333334 0C653.65333333 418.13333333 622.93333333 387.41333333 622.93333333 349.86666666L622.93333333 213.33333333c0-37.54666667 30.72-68.26666667 68.26666666-68.26666667l136.53333334 0c37.54666667 0 68.26666667 30.72 68.26666666 68.26666667L895.99999999 349.86666666zM827.73333333 554.66666666l-136.53333334 0c-75.09333333 0-136.53333333 61.44-136.53333333 136.53333333l0 136.53333334c0 75.09333333 61.44 136.53333333 136.53333333 136.53333333l136.53333334 0c75.09333333 0 136.53333333-61.44 136.53333333-136.53333333l0-136.53333334C964.26666666 616.10666666 902.82666666 554.66666666 827.73333333 554.66666666zM895.99999999 827.73333333c0 37.54666667-30.72 68.26666667-68.26666666 68.26666666l-136.53333334 0c-37.54666667 0-68.26666667-30.72-68.26666666-68.26666666l0-136.53333334c0-37.54666667 30.72-68.26666667 68.26666666-68.26666666l136.53333334 0c37.54666667 0 68.26666667 30.72 68.26666666 68.26666666L895.99999999 827.73333333zM349.86666666 76.79999999L213.33333333 76.79999999C138.23999999 76.79999999 76.79999999 138.23999999 76.79999999 213.33333333l0 136.53333333c0 75.09333333 61.44 136.53333333 136.53333334 136.53333333l136.53333333 0c75.09333333 0 136.53333333-61.44 136.53333333-136.53333333L486.39999999 213.33333333C486.39999999 138.23999999 424.95999999 76.79999999 349.86666666 76.79999999zM418.13333333 349.86666666c0 37.54666667-30.72 68.26666667-68.26666667 68.26666667L213.33333333 418.13333333C175.78666666 418.13333333 145.06666666 387.41333333 145.06666666 349.86666666L145.06666666 213.33333333c0-37.54666667 30.72-68.26666667 68.26666667-68.26666667l136.53333333 0c37.54666667 0 68.26666667 30.72 68.26666667 68.26666667L418.13333333 349.86666666z" p-id="3327"></path></svg>
