<svg t="1568091001870" class="icon" viewBox="0 0 1024 1024" version="1.1" xmlns="http://www.w3.org/2000/svg" p-id="539" width="280" height="280"><path d="M918.4 105.6C888.5 75.4 853.2 63.8 822 64c-28.1 0.1-52.8 8.4-71.7 17.7-19.2 9.7-31.4 18.7-39.1 27-20 22.7-39.8 54.9-56.4 83.6-8.2 14.3-15.5 27.6-21.2 37.9-5.5 10.1-10.2 18.3-10.6 18.8-1.6 2.5-10.2 13.3-23.4 22.2-13.4 9-31.2 16.8-54.4 16.8-6 0-12.3-0.5-19.2-1.7-9.7-1.7-18.9-2.5-27.5-2.5-33.1-0.1-58 11.7-73.8 23.6-7 5.3-12.3 10.5-16.2 14.9a109 109 0 0 0-69.4-25c-27.8 0-55.8 10.7-77 31.9L94.9 496.6c-21.2 21.2-31.9 49.2-31.9 77 0 27.8 10.7 55.8 31.9 77l276.4 276.5c21.2 21.2 49.2 31.9 77 31.9 27.8 0 55.8-10.7 77-31.9l167.3-167.4c21.2-21.2 31.9-49.2 31.9-77 0-24-8-48.2-23.9-68.1 4.4-3.8 9.7-9.1 15-16.1 12.1-15.7 23.9-40.6 23.8-73.7 0-8.7-0.8-17.9-2.5-27.6-1.2-6.9-1.7-13.3-1.7-19.3 0-23.3 7.8-41.1 16.8-54.4 8.9-13.2 19.6-21.8 22.1-23.4 0.5-0.4 8.7-5.1 18.8-10.6 31.3-17.3 87.7-47.8 121.5-77.6 8.3-7.7 17.2-19.9 26.9-39.1 9.2-18.9 17.6-43.5 17.7-71.7 0.3-30.8-11.1-65.8-40.6-95.5zM658.6 725.8l-6 6c-19.3-19.3-78.4-78.5-143.9-143.9-9.4-9.4-24.6-9.4-33.9 0-9.4 9.4-9.4 24.6 0 33.9l143.9 143.9-127.4 127.5c-12 11.9-27.4 17.8-43.1 17.8-15.7 0-31.1-5.9-43.1-17.8l-14.6-14.6 108.9-109c9.4-9.4 9.4-24.6 0-33.9-9.4-9.4-24.6-9.4-33.9 0L356.6 844.6l-72.9-72.9 55.6-55.6c9.4-9.4 9.4-24.6 0-33.9-9.4-9.4-24.6-9.4-33.9 0l-55.6 55.6-71.5-71.6 108.9-109c9.4-9.4 9.4-24.6 0-33.9-9.4-9.4-24.6-9.4-33.9 0l-109 108.9-15.5-15.5c-11.9-12-17.8-27.4-17.8-43.1 0-15.7 5.9-31.1 17.8-43.1L256.2 403l152.5 152.5c9.4 9.4 24.6 9.4 33.9 0s9.4-24.6 0-33.9C373.1 452.1 309.1 388 290.1 369l6-6c12-11.9 27.4-17.8 43.1-17.8 15.7 0 31.1 5.9 43.1 17.8l17-17-17 17 276.4 276.5c11.9 12 17.8 27.4 17.8 43.1 0 15.8-5.9 31.2-17.9 43.2z m239.7-474.2c-3.5 7.1-7.2 13.1-10.3 17.5-1.5 2.2-2.9 4-4 5.3-0.5 0.6-1 1.1-1.2 1.4l-0.2 0.2c-17.3 15.5-48.2 35-75.7 50.7-13.8 7.9-26.7 15.1-37.1 20.7-10.6 5.8-17.4 9.5-22.7 12.9-7.6 5.2-21.6 16.7-34.9 36.2-13.2 19.4-25.1 47-25.1 81.4 0 8.8 0.8 18.1 2.5 27.6 1.2 7.1 1.8 13.5 1.8 19.2-0.1 21.9-7.2 35.5-14 44.6-3.4 4.5-6.8 7.7-9.2 9.7-0.4 0.4-0.8 0.7-1.2 0.9L443 356c4.9-6.2 21.6-24.3 55.6-24.2 5.8 0 12.2 0.5 19.2 1.8 9.5 1.7 18.7 2.4 27.5 2.4 34.4 0 62-11.9 81.4-25.1 19.5-13.4 31-27.4 36.2-35 3.4-5.2 7.1-12.1 12.9-22.6 16.7-30.7 47.9-86.6 71.4-112.7l0.2-0.2c2.6-2.5 13.3-10.6 26.9-16.8C788 117 805 111.9 822.1 112c20.1 0.2 40.2 6 61.7 26.8 21.2 21.7 27.1 42.1 27.3 62.4 0 18.1-5.8 36.3-12.8 50.4z" fill="" p-id="540"></path></svg>